<svg id="图层_1" data-name="图层 1" xmlns="http://www.w3.org/2000/svg" viewBox="0 0 249.69 132.54"><defs><style>.cls-1{fill:#fff1c9;}</style></defs><title>LOGO2</title><path class="cls-1" d="M523,373.73V417a93.57,93.57,0,0,1-2.57,22.73q-2.58,9.46-6.34,14.3a30.15,30.15,0,0,1-9.81,8q-6.06,3.19-19.39,3.19H443.12v-29h24.63q6.48,0,10.1-3.54a19.53,19.53,0,0,0,4.67-6.14c.69-1.75,1-7.69,1-14.81V392.17q0-9.6-.47-14.57a19.17,19.17,0,0,0-4-9.63q-3.48-4.67-11.38-4.67l-52.52,0h0V465.2H379.31l-12.54,0-65.75,0a33.85,33.85,0,0,1-14.39-3.63,19.51,19.51,0,0,1-10.46-10.72c-1.84-4.73-2.19-8-2.45-14.5s-.39-7.25-.39-14.66V397.28h64.3v24.25H311.09l.4,4.55c-.07,3.88,1,6.59,3.1,8.14s5.61,2.31,10.41,2.31h53.64v-75H325c-4.41,0-7.42.83-9,2.47a10,10,0,0,0-2.91,5.32,42.43,42.43,0,0,0-.49,6.91H273.72V364.38c0-5.46.36-8.86,1.87-12.67A32.82,32.82,0,0,1,282.3,341a26.45,26.45,0,0,1,11.63-6.28c5.07-1.39,10.12-1.89,17.75-2.08H484.34a43,43,0,0,1,17.14,3.39q7.92,3.38,11.77,8.34t6.81,14Q523,367.43,523,373.73Z" transform="translate(-273.33 -332.66)"/><path class="cls-1" d="M415.27,368.84c0-.41,0-.83,0-1.27V420c.06-1.53.09-3.19.09-5.13V379.93Q415.32,373.33,415.27,368.84Z" transform="translate(-273.33 -332.66)"/></svg>